HIERARCHY
ROOT Hips
{
	OFFSET	4.6131	89.0899	-119.084
	CHANNELS 6 Xposition Yposition Zposition Zrotation Xrotation Yrotation
	JOINT Chest
	{
		OFFSET	0	16.383	0
		CHANNELS 3 Zrotation Xrotation Yrotation
		JOINT LeftCollar
		{
			OFFSET	3.81	32.766	-3.81
			CHANNELS 3 Zrotation Xrotation Yrotation
			JOINT LeftUpArm
			{
				OFFSET	14.5367	0	3.8951
				CHANNELS 3 Zrotation Xrotation Yrotation
				JOINT LeftLowArm
				{
					OFFSET	30.2895	0	0
					CHANNELS 3 Zrotation Xrotation Yrotation
					JOINT LeftHand
					{
						OFFSET	27.2415	0	0
						CHANNELS 3 Zrotation Xrotation Yrotation
						End Site
						{
							OFFSET	20.3835	0	0
						}
					}
				}
			}
		}
		JOINT Neck
		{
			OFFSET	0	32.766	0
			CHANNELS 3 Zrotation Xrotation Yrotation
			JOINT Head
			{
				OFFSET	0	19.6215	0
				CHANNELS 3 Zrotation Xrotation Yrotation
				End Site
				{
					OFFSET	0	0	10.16
				}
			}
		}
		JOINT RightCollar
		{
			OFFSET	-3.81	32.766	-3.81
			CHANNELS 3 Zrotation Xrotation Yrotation
			JOINT RightUpArm
			{
				OFFSET	-14.5367	0	3.8951
				CHANNELS 3 Zrotation Xrotation Yrotation
				JOINT RightLowArm
				{
					OFFSET	-30.2895	0	0
					CHANNELS 3 Zrotation Xrotation Yrotation
					JOINT RightHand
					{
						OFFSET	-27.2415	0	0
						CHANNELS 3 Zrotation Xrotation Yrotation
						End Site
						{
							OFFSET	-20.3835	0	0
						}
					}
				}
			}
		}
	}
	JOINT LeftUpLeg
	{
		OFFSET	9.3345	0	0
		CHANNELS 3 Zrotation Xrotation Yrotation
		JOINT LeftLowLeg
		{
			OFFSET	0	-45.5295	0
			CHANNELS 3 Zrotation Xrotation Yrotation
			JOINT LeftFoot
			{
				OFFSET	0	-44.196	0
				CHANNELS 3 Zrotation Xrotation Yrotation
				End Site
				{
					OFFSET	0	0	26.4795
				}
			}
		}
	}
	JOINT RightUpLeg
	{
		OFFSET	-9.3345	0	0
		CHANNELS 3 Zrotation Xrotation Yrotation
		JOINT RightLowLeg
		{
			OFFSET	0	-45.5295	0
			CHANNELS 3 Zrotation Xrotation Yrotation
			JOINT RightFoot
			{
				OFFSET	0	-44.196	0
				CHANNELS 3 Zrotation Xrotation Yrotation
				End Site
				{
					OFFSET	0	0	26.4795
				}
			}
		}
	}
}
MOTION
Frames:	20
Frame Time:	0.0166667
13.0382	86.9214	78.6168	-3.72283	0.223032	2.80682	2.02869	1.7338	-4.8007	-9.14002	1.5859	-3.15061	-30.0519	-10.9447	-49.3762	-10.7332	6.27706	-29.2776	-49.7956	26.341	23.6603	-1.35917	-3.35994	1.44368	-1.33323	-3.13037	1.39458	5.38622	3.85356	29.5748	18.9773	-24.9591	60.0061	1.24693	-4.20929	22.8563	34.322	-4.56562	-28.8753	8.77471	-5.42834	3.3188	-6.28945	27.3305	-7.94643	5.66821	-9.83656	14.0176	-9.80038	-16.3839	-8.51894	13.9927	45.0357	-5.65465	-2.2021	-5.39203	-15.1206	
13.1092	86.7329	79.2797	-3.79806	0.213143	2.81062	2.24875	2.00913	-4.83618	-9.21162	1.36931	-3.30975	-29.4477	-11.3305	-48.9115	-10.3199	4.53223	-29.9418	-51.6175	26.4004	25.1307	-1.51783	-3.3509	1.4021	-1.39776	-3.06991	1.38218	5.38055	3.96716	29.3889	19.0086	-25.0014	60.0845	1.16276	-4.11558	23.0418	34.2157	-4.64322	-28.8587	8.83467	-5.26138	3.19056	-6.22358	27.7496	-7.8777	5.58458	-9.59563	13.9743	-9.20715	-17.5534	-8.50705	13.1167	44.3183	-5.68993	-1.21283	-9.15966	-14.5129	
13.0853	86.5854	79.8368	-3.83859	0.226429	2.80342	2.33128	2.07338	-4.84158	-9.14374	1.41312	-3.32371	-29.2279	-11.6784	-48.7619	-10.3027	3.6174	-30.2803	-52.177	26.0578	26.0669	-1.68699	-3.1754	1.20405	-1.65144	-3.09263	1.19454	5.44672	4.21158	29.3769	18.8862	-25.139	60.0677	1.49778	-4.14742	22.7308	33.7417	-4.48603	-28.8062	8.86038	-5.11376	3.07646	-6.16294	28.1964	-7.85136	5.54456	-9.56165	13.9806	-8.9441	-18.0438	-8.59612	12.4076	41.0955	-5.06007	-0.382284	-9.671	-13.9027	
13.0647	86.4188	80.4095	-4.07733	0.106386	2.6505	2.55462	2.73949	-5.17934	-9.05743	0.837008	-2.92551	-29.2829	-12.9756	-48.8774	-10.6288	3.00054	-30.3708	-53.7313	26.2351	27.1306	-1.58782	-3.55926	1.63255	-1.67732	-2.99779	1.16019	5.60458	4.09751	29.8091	18.5979	-25.262	59.8124	1.6966	-4.24992	22.9435	33.5723	-4.19317	-28.8837	9.11288	-4.75793	3.17335	-6.16712	28.6589	-7.94501	5.69917	-9.41068	14.0557	-8.14032	-18.4083	-8.56881	11.6659	40.7241	-4.60957	0.116275	-11.365	-13.5193	
13.1074	86.2595	81.0486	-4.3655	-0.0140874	2.4218	2.7968	2.94289	-5.10725	-8.8561	0.959393	-3.20985	-29.5404	-14.3383	-48.9331	-10.752	2.78403	-30.2162	-53.4087	25.4168	27.5874	-1.55212	-3.30573	1.52704	-1.60823	-3.22007	1.37527	5.74417	4.28708	29.7766	18.5718	-25.2907	59.9766	1.94641	-4.11813	22.8145	33.2556	-3.92377	-28.8884	9.41832	-4.42501	3.42572	-6.04113	29.0742	-8.04388	5.88205	-9.13812	14.0908	-7.1577	-18.8096	-8.39639	10.6379	33.1031	-1.7795	0.524597	-7.87714	-14.6786	
13.0878	86.1308	81.588	-4.38866	0.0899128	2.522	3.27624	3.33037	-5.3114	-9.11184	0.525465	-3.41554	-29.6565	-15.3348	-48.9722	-10.3093	1.76505	-30.6433	-54.8506	25.0003	28.445	-1.96321	-3.76421	1.50445	-1.55949	-3.22509	1.43618	5.33606	3.79995	29.8435	18.8448	-25.0308	59.8258	1.91782	-3.84665	22.9833	33.188	-3.74544	-28.9639	9.53749	-4.40072	3.3896	-6.04637	29.4312	-8.12595	5.97984	-9.01195	14.1204	-6.82477	-19.1934	-8.46542	10.1147	30.8862	-0.985577	1.42895	-9.48872	-14.0244	
12.9836	85.9782	82.0695	-4.41096	0.285983	2.69493	3.66365	3.44552	-5.4619	-9.22062	0.443737	-3.56981	-29.7395	-16.6468	-49.4392	-10.2657	1.8089	-30.929	-55.8716	24.2362	28.7758	-2.11283	-3.78277	1.19991	-1.77798	-3.42919	1.24403	5.33357	3.96063	29.7251	18.5648	-25.0179	59.8767	2.00106	-3.47542	23.0064	33.0736	-3.79216	-28.8885	9.59597	-4.40981	3.22947	-5.82947	30.0418	-8.26381	5.91584	-9.58187	14.1975	-6.02889	-20.1573	-8.31785	9.22343	30.0442	-0.837886	2.14994	-10.9122	-13.2699	
12.8055	85.7188	82.5759	-4.41532	0.366537	2.87726	4.04057	3.67385	-5.62941	-9.35217	0.309653	-3.70065	-29.7291	-17.7312	-49.9334	-10.1979	2.03665	-31.1975	-54.5067	23.4768	28.2643	-2.40886	-3.85943	0.790894	-2.07382	-3.50613	0.836867	5.23912	3.87097	29.6931	18.4309	-24.8398	59.8276	1.94839	-3.18857	23.0392	33.1854	-3.98081	-28.9398	9.61081	-4.3435	3.09079	-5.69162	30.1608	-8.44907	6.07934	-9.17947	14.2988	-5.65967	-20.6331	-8.09446	8.71227	25.5928	-0.529115	2.93922	-9.13707	-12.87	
12.8055	85.6293	82.7638	-4.30811	0.274479	3.17274	4.2116	3.73563	-5.99318	-9.23936	0.520869	-3.77166	-29.4658	-18.7298	-50.3621	-10.0296	2.40625	-31.6193	-53.2854	23.3088	27.6536	-2.56024	-3.63179	0.619745	-2.30986	-3.61842	0.575748	5.24329	4.09269	29.7418	18.2788	-24.6353	59.7701	2.08422	-2.80484	22.9321	33.0179	-4.08863	-28.8702	9.53791	-4.10672	2.8798	-5.4181	30.7121	-8.77452	6.13351	-9.54406	14.4148	-5.41516	-20.8694	-7.87929	8.33415	23.2339	-0.7768	3.10915	-7.46782	-12.7465	
12.8055	85.5443	82.8578	-3.94368	0.00449119	3.5857	4.13246	3.7944	-6.5428	-9.33095	0.681229	-4.00938	-28.7551	-19.2545	-50.2652	-10.0277	2.47542	-31.8436	-52.4518	23.6129	27.1226	-2.79138	-3.38158	0.213973	-2.53769	-3.55069	0.106805	5.29571	4.54563	29.838	18.0359	-24.4678	59.7168	2.18134	-2.58231	22.8703	33.0615	-4.13501	-28.9853	9.20902	-3.89366	2.47873	-5.15602	31.4444	-8.89242	6.14452	-9.82248	14.423	-5.70814	-20.754	-7.9472	8.201	20.3627	-0.803196	-0.968852	-4.85044	-11.3317	
12.449	85.5861	83.2148	-3.65233	-0.165817	3.88832	4.2136	3.83089	-6.86852	-9.38788	0.900161	-4.21372	-28.7941	-19.5221	-50.1925	-8.64071	3.5547	-33.276	-51.3649	23.7422	26.112	-2.9044	-3.3229	-0.0413696	-2.55196	-3.413	-0.0329585	5.2998	4.8748	29.8802	18.1866	-24.1538	59.6734	1.9543	-2.17088	22.9221	33.1178	-4.10045	-29.1101	8.93963	-3.75977	2.1848	-5.03432	31.8606	-8.86662	6.31955	-9.66903	14.6028	-5.66235	-22.2353	-7.41484	7.83971	19.5293	-1.42457	-2.65739	0.148033	-9.28913	
12.0229	85.1309	83.8518	-3.44075	0.0128646	4.2438	4.47714	3.47041	-7.18374	-9.4841	1.16385	-4.28018	-26.0151	-19.4212	-50.6565	-10.0086	1.4893	-32.8541	-50.7939	23.7879	25.7585	-3.09583	-3.20048	-0.226153	-2.61101	-3.31588	-0.174793	5.34869	5.3362	29.9155	18.6872	-23.9858	59.7769	1.27113	-1.34189	23.1084	33.2352	-4.12872	-29.1953	9.29723	-4.09926	2.44977	-4.92628	33.3066	-8.56468	6.07367	-10.8506	13.684	-5.47532	-23.123	-6.84067	7.43841	19.4869	-1.05303	-6.17923	4.93983	-7.63533	
11.5968	84.9724	84.5428	-3.29042	0.117816	4.61911	4.88255	3.13247	-7.5209	-9.56906	1.49324	-4.32187	-26.2244	-19.4745	-50.8921	-8.96507	1.46495	-34.03	-50.0453	25.2933	24.9978	-3.24282	-3.10113	-0.379255	-2.67543	-3.24775	-0.325323	5.40007	5.74152	29.9095	18.9264	-23.8671	59.8428	2.08353	-0.673163	22.7039	32.5057	-3.77806	-29.264	9.35067	-4.10101	2.33207	-4.78368	33.9478	-8.27667	5.70153	-10.2812	13.2245	-5.44491	-23.8928	-5.48806	7.74947	22.9595	0.101327	-2.20342	-1.33415	-13.4574	
11.3023	84.9229	85.1836	-3.13692	0.0805772	5.12021	5.34522	2.88059	-8.03422	-9.1362	1.8345	-4.22807	-25.2323	-19.1149	-51.6324	-8.73292	-0.842057	-35.2119	-50.7308	24.4934	25.3994	-3.32322	-3.01344	-0.352287	-2.7079	-3.18984	-0.339626	5.52082	6.15566	29.9069	18.9873	-23.6765	59.7539	2.32345	-0.37109	22.6496	32.1663	-3.38494	-29.3821	9.55904	-4.00383	2.1708	-4.75507	34.5373	-8.20882	5.38068	-10.0867	12.7394	-5.63341	-23.4765	-4.43212	7.93286	26.0029	0.754812	-2.6037	-4.36447	-15.485	
11.465	85.0331	85.7331	-3.19325	-0.30599	5.29298	5.82499	3.07294	-8.24914	-8.65521	1.9583	-4.08969	-25.1279	-19.2283	-52.3307	-8.72743	-2.1002	-36.4611	-51.109	23.914	25.5978	-3.19415	-3.00195	-0.338965	-2.79638	-3.11625	-0.330789	5.9594	6.43972	29.9478	19.9388	-23.4474	59.663	2.17321	0.57204	22.9046	32.2305	-3.51034	-29.4339	9.76272	-3.61427	2.26922	-4.55932	35.6516	-7.9984	5.20623	-9.88096	12.2398	-5.25379	-20.9482	-1.8105	5.91129	25.986	-0.955731	-0.24934	-6.87346	-15.1212	
11.8381	85.5251	86.1215	-3.33182	-0.889065	5.17262	6.85207	3.05263	-8.187	-8.84947	2.33844	-3.95019	-25.384	-19.3977	-52.9639	-9.05093	-2.49654	-36.2454	-50.1819	24.6821	24.2	-3.42483	-2.71334	-0.378825	-2.50887	-3.18744	-0.351944	5.71589	7.1019	29.9008	20.4431	-23.3079	59.5965	2.17921	1.06282	22.9673	32.334	-3.85449	-29.1943	10.0589	-3.04696	2.72576	-4.29	36.4695	-8.34999	5.11294	-8.73652	12.2102	-4.66801	-18.2397	-2.64888	4.39269	23.7213	0.595842	0.49817	-7.41081	-14.7501	
11.8381	86.0991	86.4594	-3.27511	-0.903383	4.90281	7.29993	2.49478	-7.97351	-8.80142	2.67186	-3.72275	-26.1125	-19.9652	-53.966	-8.44367	-2.53968	-38.2851	-51.2279	22.8058	24.5551	-3.19626	-2.37276	-0.344495	-2.60273	-2.90233	-0.399613	5.85445	7.88513	29.8434	21.3231	-23.2153	59.5017	2.11908	1.78628	23.3972	32.1768	-4.20271	-29.0013	10.1261	-3.09227	3.23782	-4.23255	37.7651	-7.98884	5.07796	-8.02631	11.8015	-4.14998	-16.3577	-4.4729	3.67654	22.0993	2.86483	-0.781191	-7.24794	-14.8854	
11.6542	86.6292	86.6567	-2.9278	-0.105397	4.34131	7.48248	1.12892	-7.43835	-8.88404	3.01179	-3.40391	-26.9585	-20.2908	-54.7788	-8.07199	-2.36839	-40.0601	-51.1988	20.8367	21.5313	-3.40397	-2.00248	-0.256657	-2.7106	-2.58514	-0.392399	5.83244	8.59705	29.7562	20.9239	-22.9959	59.4351	2.12316	1.88736	23.4667	32.3188	-4.9426	-28.6366	9.9431	-3.84455	3.86882	-4.46303	38.8059	-6.95603	4.95533	-7.45607	11.1286	-4.1844	-16.4053	-5.20016	5.31026	22.7735	2.88031	-3.0314	-8.05295	-14.4365	
11.3863	86.8401	86.7749	-2.60832	0.371851	3.63448	7.62455	0.268204	-6.79297	-8.70613	3.19803	-3.22623	-27.4886	-20.3842	-55.425	-8.01578	-2.58306	-40.9452	-50.5831	20.4417	19.0219	-2.70753	-1.89678	-0.293961	-2.15049	-2.32914	-0.420547	5.9449	8.9806	29.7576	24.487	-22.8694	58.9694	2.8803	3.74662	23.8728	30.6556	-4.17094	-27.799	9.9155	-4.1373	4.29301	-4.94613	39.4396	-5.5955	4.77572	-7.04345	10.3832	-4.167	-16.4475	-6.52938	2.11138	21.9938	4.72054	-0.872909	-7.50781	-13.1859	
10.9891	86.9996	86.9291	-2.45312	0.851874	2.94493	7.77616	-0.421892	-6.10677	-8.92524	3.4104	-3.16651	-27.1955	-20.2958	-55.5726	-7.78163	-3.08816	-43.0674	-50.5085	19.3424	17.9917	-1.94366	-1.79789	-0.199498	-1.57936	-2.07268	-0.267075	6.37039	9.09831	29.7801	24.1439	-22.4177	58.552	3.22806	3.59253	23.7088	30.3297	-5.21807	-27.0468	9.84816	-4.43896	4.91919	-5.01492	39.8662	-5.03665	3.90499	-3.01132	10.1803	-3.04352	-16.1334	-6.41337	1.69204	21.0751	5.61583	-1.57655	-6.33546	-13.4013	
